<?xml version="1.0" encoding="UTF-8"?>
<svg role="img" xmlns="http://www.w3.org/2000/svg" xmlns:xlink="http://www.w3.org/1999/xlink" width="24px" height="24px" viewBox="0 0 24 23" version="1.1">
<g id="surface1">
<path fill="currentColor" d="M 23.601562 9.105469 L 23.566406 9.019531 L 20.300781 0.539062 C 20.234375 0.375 20.117188 0.234375 19.964844 0.136719 C 19.652344 -0.0546875 19.253906 -0.03125 18.964844 0.191406 C 18.824219 0.304688 18.722656 0.457031 18.675781 0.628906 L 16.46875 7.339844 L 7.539062 7.339844 L 5.332031 0.628906 C 5.285156 0.457031 5.183594 0.300781 5.042969 0.191406 C 4.753906 -0.0351562 4.355469 -0.0546875 4.042969 0.136719 C 3.890625 0.234375 3.773438 0.375 3.707031 0.539062 L 0.433594 9.015625 L 0.402344 9.101562 C -0.566406 11.609375 0.253906 14.453125 2.414062 16.074219 L 2.425781 16.082031 L 2.453125 16.101562 L 7.429688 19.808594 L 9.890625 21.664062 L 11.390625 22.789062 C 11.753906 23.0625 12.25 23.0625 12.613281 22.789062 L 14.109375 21.664062 L 16.574219 19.808594 L 21.578125 16.082031 L 21.59375 16.070312 C 23.746094 14.453125 24.5625 11.613281 23.601562 9.105469 Z M 23.601562 9.105469 "/>
</g>
</svg>
