<?xml version="1.0" encoding="UTF-8"?>
<svg role="img" xmlns="http://www.w3.org/2000/svg" xmlns:xlink="http://www.w3.org/1999/xlink" width="24px" height="24px" viewBox="0 0 24 24" version="1.1">
<g id="surface1">
<path fill="currentColor" d="M 21.144531 0 L 2.855469 0 C 1.28125 0 0 1.28125 0 2.855469 L 0 21.144531 C 0 22.71875 1.28125 24 2.855469 24 L 21.144531 24 C 22.71875 24 24 22.71875 24 21.144531 L 24 2.855469 C 24 1.28125 22.71875 0 21.144531 0 Z M 7.429688 9.144531 L 7.429688 20 L 4 20 L 4 9.144531 Z M 4 5.984375 C 4 5.183594 4.6875 4.570312 5.714844 4.570312 C 6.742188 4.570312 7.386719 5.183594 7.429688 5.984375 C 7.429688 6.78125 6.789062 7.429688 5.714844 7.429688 C 4.6875 7.429688 4 6.78125 4 5.984375 Z M 20 20 L 16.570312 20 C 16.570312 20 16.570312 14.707031 16.570312 14.285156 C 16.570312 13.144531 16 12 14.570312 11.976562 L 14.527344 11.976562 C 13.144531 11.976562 12.570312 13.152344 12.570312 14.285156 C 12.570312 14.804688 12.570312 20 12.570312 20 L 9.144531 20 L 9.144531 9.144531 L 12.570312 9.144531 L 12.570312 10.605469 C 12.570312 10.605469 13.675781 9.144531 15.890625 9.144531 C 18.160156 9.144531 20 10.703125 20 13.863281 Z M 20 20 "/>
</g>
</svg>
