<svg data-testid="site-logo" viewBox="0 0 512 512" xmlns="http://www.w3.org/2000/svg" xml:space="preserve">
    <desc>SCC de Snaijer</desc>
    <path fill="var(--logoBgColor)" d="M0 0h512v512H0z"/>
    <path d="M213.183 339.512c-20.077 0-38.65-3.301-55.719-9.912-17.07-6.606-31.876-15.964-44.424-28.075-12.549-12.108-22.329-26.354-29.344-42.734-7.016-16.383-10.522-34.347-10.522-53.893s3.506-37.513 10.522-53.893c7.015-16.38 16.85-30.625 29.506-42.737 12.656-12.108 27.522-21.465 44.588-28.076 17.069-6.606 35.642-9.911 55.722-9.911 21.34 0 40.894 3.675 58.653 11.023 17.762 7.349 32.69 18.2 44.788 32.552l-31.308 29.878c-9.469-10.376-20.07-18.137-31.81-23.278-11.738-5.145-24.446-7.715-38.117-7.715-13.57 0-26.049 2.255-37.436 6.766-11.388 4.514-21.282 10.885-29.683 19.113-8.402 8.232-14.911 17.974-19.533 29.226-4.622 11.253-6.929 23.603-6.929 37.052 0 13.45 2.307 25.8 6.929 37.052 4.622 11.253 11.131 20.995 19.533 29.223 8.4 8.231 18.295 14.602 29.683 19.113 11.387 4.514 23.866 6.77 37.436 6.77 13.671 0 26.379-2.571 38.116-7.716 11.741-5.14 22.342-13.009 31.81-23.603l31.309 29.88c-12.098 14.32-27.026 25.215-44.788 32.688-17.76 7.473-37.42 11.207-58.982 11.207Z" fill="var(--logoShapeColor)"/>
    <path d="M298.819 441.719c20.076 0 38.65-3.302 55.718-9.912 17.07-6.607 31.877-15.964 44.425-28.076 12.548-12.108 22.328-26.354 29.344-42.734 7.015-16.383 10.521-34.346 10.521-53.892 0-19.547-3.506-37.513-10.521-53.893-7.016-16.38-16.851-30.626-29.507-42.737-12.656-12.108-27.522-21.466-44.587-28.076-17.07-6.607-35.642-9.912-55.722-9.912-21.341 0-40.894 3.676-58.653 11.024-17.762 7.348-32.69 18.199-44.788 32.552l31.308 29.877c9.468-10.376 20.07-18.136 31.81-23.277 11.738-5.145 24.445-7.716 38.116-7.716 13.57 0 26.049 2.256 37.437 6.766 11.387 4.515 21.282 10.886 29.683 19.114 8.401 8.231 14.91 17.973 19.532 29.226 4.622 11.252 6.93 23.603 6.93 37.052 0 13.449-2.308 25.8-6.93 37.052-4.621 11.252-11.13 20.994-19.532 29.222-8.401 8.232-18.296 14.603-29.683 19.114-11.388 4.514-23.867 6.77-37.437 6.77-13.67 0-26.378-2.571-38.116-7.716-11.74-5.141-22.342-13.01-31.81-23.603l-31.308 29.88c12.097 14.319 27.026 25.215 44.788 32.687 17.759 7.473 37.42 11.208 58.982 11.208Z" fill="var(--logoShapeColor)"/>
    <g style="display:var(--logoDisplay)">
        <path d="M444.74 387v-10h43.75V135.002h-43.75v-10h48.75a5 5 0 0 1 5 5v252a5 5 0 0 1-5 5h-48.75ZM67.26 125v10H23.51v241.999h43.75v10H18.51a5 5 0 0 1-5-5v-252a5 5 0 0 1 5-5h48.75Z" fill="var(--logoShapeColor)"/>
    </g>
</svg>
